<svg xmlns="http://www.w3.org/2000/svg" viewBox="0 0 1202.5 1487.1"><defs><style>.cls-1{fill:#1e824c;}</style></defs><title>Logo CDS</title><g id="Capa_2" data-name="Capa 2"><g id="Capa_1-2" data-name="Capa 1"><path class="cls-1" d="M1175.4,798.7v.5c0,.5-.4.8-.5,1.2a11,11,0,0,0-.2,1.8c-.1,2.7-.2,5.5-.3,8.2a49,49,0,0,1-.6,7.7c-.1.5-.1.9-.2,1.4-.4,4.7-1.1,9.4-1.7,14.1s-1.4,9.3-2.2,14c-1.1,6-2.3,12-3.7,17.9a334.78,334.78,0,0,1-9.9,33.8,274.32,274.32,0,0,1-15.6,35.6,190.72,190.72,0,0,1-19.1,29.5,245.9,245.9,0,0,1-17.3,19.5c-6.7,6.8-13.8,13.4-21,19.7-6.4,5.7-12.9,11.2-19.5,16.6-8.1,6.7-16.1,13.5-24.2,20.2l-7.5,6a48.62,48.62,0,0,1-14,7.5c-3.2,1.1-6.3,2.2-9.5,3.3-6.2,2.2-12.2,4.7-18.3,7.2-16.9,7-33.6,14.4-50.3,21.8-5,2.2-10,4.5-15.1,6.4a77.09,77.09,0,0,1-11.8,3.7,60.61,60.61,0,0,1-9.5,1.5c-1.1.1-2.1.1-3.2.2-3,.3-6.1.4-9.1.5-8.4.1-16.8,0-25.2-.2-14.2-.4-28.4-.5-42.5-.5-17.2-.1-34.5-.1-51.7-.3-4.6,0-9.1-.2-13.7-.3-6.1-.1-12.2-.3-18.3-.4-4.4-.1-8.8-.2-13.3-.6a17.7,17.7,0,0,0-2.3-.1c-5.8-.1-11.6-.7-17.3-1.2a60.07,60.07,0,0,1-7.2-1.2,1.32,1.32,0,0,1-.9-1c-.1-.4-.3-.9-.4-1.3a29,29,0,0,1,.5-13.1,20.26,20.26,0,0,1,6.9-10.5,28,28,0,0,1,6.7-3.9,45.92,45.92,0,0,1,9.6-2.8,68.53,68.53,0,0,1,9.1-1.1,142.54,142.54,0,0,1,16-.5c2,0,4,.2,5.9.3,2.6.1,5.2.3,7.8.4,3,.1,6.1.4,9.1.6,6.5.5,13.1.8,19.6,1.2,1.7.1,3.4.1,5,.1,4.7.1,9.5.2,14.2.6,1.7.2,3.3.2,5,.3a68.26,68.26,0,0,1,7.8.6c1.2.2,2.4.2,3.6.3,2.9.2,5.8.3,8.7.7h.5c6.6.3,13.1,1,19.6,1.2,7.8.2,15.6.3,23.3,0,2.1-.1,4.3-.2,6.4-.5l2.3-.3a117.88,117.88,0,0,0,24.2-4.8c2.5-.8,4.9-1.7,7.3-2.5,12.8-4.6,25.4-9.4,37.9-14.7,9.3-3.9,18.4-8.2,27.3-12.8a281.1,281.1,0,0,0,44.4-28.8c9-7.1,17.6-14.6,26-22.4,9.2-8.5,18.1-17.3,26.9-26.2a157.21,157.21,0,0,0,26-35.2,206.38,206.38,0,0,0,13.4-30,267.71,267.71,0,0,0,8.6-30.3q1.8-8.55,3.3-17.1c.5-3,.8-6,1.3-9.1.6-3.9.9-7.9,1.4-11.8a.9.9,0,0,1,.1-.5c.3-5.2,1-10.3,1.2-15.5.2-4.4.4-8.8.6-13.3q.45-12.6,0-25.2c-.1-3.5-.3-7-.4-10.5-.1-3.7-.3-7.3-.7-11-.2-1.5-.2-3-.3-4.6-.2-2.1-.4-4.3-.5-6.4-.1-1.4-.2-2.7-.4-4.1-.2-1.8-.4-3.6-.6-5.5a6.75,6.75,0,0,0-.2-1.4c-.2-3.8-.9-7.6-1.3-11.4-.3-3.2-.9-6.3-1.3-9.5-.4-2.7-.7-5.4-1.2-8.1s-.7-5.1-1.2-7.7c-.6-3-1.3-5.9-2.2-8.9-1.5-5-3.4-9.8-5.3-14.6-.9-2.3-1.9-4.5-2.8-6.7-3.8-8.6-7.7-17.3-11.6-25.9-1.6-3.6-3.5-7.1-5.3-10.7a90,90,0,0,0-4.6-7.9,84.4,84.4,0,0,0-5.1-7.1,44.59,44.59,0,0,0-14.5-11.7,82.91,82.91,0,0,0-9.7-4.1c-4.6-1.7-9.2-3.1-13.9-4.6-3.9-1.3-7.8-2.5-11.8-3.8a18,18,0,0,1-2.1-.8,2.26,2.26,0,0,1-1.3-1.7c0-.1-.1-.3-.1-.4a68.89,68.89,0,0,1,.1-18.7,101.32,101.32,0,0,1,3.1-14.3,210.33,210.33,0,0,1,7.1-20.7c2.6-6.7,5.5-13.2,8.4-19.8,4.2-9.5,8.5-18.9,12.7-28.4,4.6-10.5,9-21,12.8-31.8a256.14,256.14,0,0,0,8.2-27.1c1.3-5.4,2.5-11.8,3.4-17,.6-3.6.8-7.3,1.3-10.9.2-1.2.2-2.4.3-3.6.2-4.7.3-9.5.2-14.2-.1-4.1-.3-8.2-.8-12.3-.5-3.9-1.1-7.8-1.9-11.7a141.51,141.51,0,0,0-8-26.2,162,162,0,0,0-16.5-30c-3-4.4-6.3-8.6-9.6-12.8a123.23,123.23,0,0,0-16-16.3,175,175,0,0,0-17.7-13c-7-4.6-14.2-8.8-21.6-12.9-7.8-4.4-15.7-8.7-23.6-13.1a150,150,0,0,0-20.3-9.5,126.1,126.1,0,0,0-18.9-5.2c-3-.6-6-.8-9-1.4a8.58,8.58,0,0,0-2.3-.2c-4.9-.5-9.7-1-14.6-1.2a195.58,195.58,0,0,0-24.2-.6,69.32,69.32,0,0,0-13.6,1.7,46.49,46.49,0,0,0-12,4.3c-2.2,1.1-4.3,2.3-6.4,3.6-1.9,1.2-3.9,2.5-5.8,3.7s-3.6,2.3-5.4,3.5c-1.4.9-2.7,2.1-4.4,2.4a25.44,25.44,0,0,1-7.3.5,32.52,32.52,0,0,1-4.5-.6,20.58,20.58,0,0,1-7.7-3.8,28,28,0,0,1-3.9-3.8,37.8,37.8,0,0,1-4-5.6c-1.3-2.2-2.6-4.5-3.9-6.8-1.6-3-3.1-5.9-4.6-8.9-2.6-5.2-5.3-10.3-8.3-15.3a151.49,151.49,0,0,0-14.6-21,157.61,157.61,0,0,0-24.8-24.2c-11.2-8.7-22.8-16.9-34.6-24.7-6.6-4.3-13.4-8.5-20.3-12.4A315.78,315.78,0,0,0,667,77.2,252.47,252.47,0,0,0,633.2,66c-5-1.3-10.1-2.3-15.2-3.2-4.2-.7-8.4-1.3-12.7-1.9-5-.7-10-.8-15-1.3-1.4-.1-2.7-.2-4.1-.2H570.6c-2.3,0-4.6.2-6.8.4a11,11,0,0,0-1.8.2c-4.7.2-9.4.8-14.1,1.3-2.6.3-5.1.6-7.7,1-5.1.8-10.2,1.7-15.3,2.8s-10.1,2.2-15.1,3.5c-10.6,2.8-21.1,5.9-31.5,9.6-9.9,3.5-19.6,7.5-29.2,11.8-15.6,6.9-30.9,14.5-45.9,22.6a713.14,713.14,0,0,0-64.9,39.3c-12.5,8.5-24.7,17.4-36.4,27a295.59,295.59,0,0,0-22.7,20.5,167.55,167.55,0,0,0-13.6,15.5c-3,4-6.1,8-9,12.1a311.33,311.33,0,0,0-28.4,47.4c-3.8,7.8-7.4,15.7-10.9,23.7-4.6,10.5-9.1,21-13.7,31.4A397.28,397.28,0,0,0,189.1,369c-3.9,12.5-7.2,25.2-10,38-1.5,7-2.9,14-4.1,21.1-1,6-2,12-2.7,18.1-.7,3.7-.8,7.6-1.4,11.3-.3,5.3-1.1,10.6-1.2,16,0,1.2-.1,2.4-.2,3.7a260.1,260.1,0,0,0-.4,29.3c.1,4.9.5,9.8.9,14.6q.9,10.2,2.7,20.4c1,5.4,2.1,10.8,3.6,16.1a131.42,131.42,0,0,0,5.8,16.3c1.8,4.2,3.7,8.4,5.6,12.5s3.7,8.4,5.5,12.6a78.67,78.67,0,0,1,3.6,10.3,33,33,0,0,1,1.5,7.6v1.4a1.61,1.61,0,0,1-.3.9,9,9,0,0,1-.9,1,43.15,43.15,0,0,1-7,5.8,92.87,92.87,0,0,1-8.5,5.3c-4.1,2.3-8.3,4.5-12.6,6.5-6.3,3.1-12.6,6.1-18.9,9.3-6.7,3.4-13.2,7-19.5,10.9a148.12,148.12,0,0,0-17.1,12.3,123.59,123.59,0,0,0-21.7,23.4,113.4,113.4,0,0,0-15.1,31.1,146.58,146.58,0,0,0-5,21.8c-.6,3.9-.9,7.9-1.4,11.8-.1,1.1-.2,2.1-.2,3.2-.4,9-.3,18,.1,27,0,1.1.1,2.1.2,3.2l.6,7.8c.2,2,.3,4,.5,5.9,0,.5.1.9.1,1.4.2,4.9.9,9.7,1.2,14.6.1,1.2.3,2.4.4,3.6.1.8.2,1.5.3,2.3.4,4.9,1.1,9.7,1.8,14.5.3,2.3.6,4.5,1,6.8a278.1,278.1,0,0,0,6.6,32.2,204,204,0,0,0,9.8,28.5,171.7,171.7,0,0,0,24.7,40.5,236.35,236.35,0,0,0,19.3,20.7,324.64,324.64,0,0,0,31.4,25.9,435.73,435.73,0,0,0,42.7,27.4,547.65,547.65,0,0,0,80.8,37.4q23.55,8.7,47.9,15.3,12.3,3.3,24.9,6c6.3,1.3,12.5,2.5,18.8,3.7,4.8.9,9.6,1.5,14.4,2.3,3.5.3,6.9,1.1,10.4,1.2,4.4.8,8.8.8,13.2,1.4.3,0,.6.1.9.1,7.9.4,15.8,1.2,23.8,1.1h13.3a109.68,109.68,0,0,0,12.8-.6c1.2-.1,2.4-.2,3.7-.2a64.79,64.79,0,0,0,7.7-.7l2.7-.3a42.61,42.61,0,0,0,5-.6c2.7-.4,5.4-.7,8.1-1.2,8.3-1.4,10.7-1.6,20.1-4.4q9-2.7,18-5.1c8.3-2.2,13.7-3.6,20.4-4.9a61.67,61.67,0,0,1,8.6-1.4,78.48,78.48,0,0,1,11.8-1.1,66.39,66.39,0,0,1,10,.4,23.32,23.32,0,0,1,7.4,2.1,13.6,13.6,0,0,1,3.8,2.4,13.8,13.8,0,0,1,4.2,6.9,20.56,20.56,0,0,1,.3,8.2,48.35,48.35,0,0,1-3.4,11.8,2,2,0,0,1-1.3,1.2,36.53,36.53,0,0,1-5.6,1.8c-4.3,1.1-8.6,2.1-12.9,2.9-4.6.8-9.3,1.7-14,2.4l-7.7,1.2c-3.2.4-6.4.8-9.5,1.3l-13.6,1.8c-3.8.5-7.6.7-11.4,1.4a31.63,31.63,0,0,1-3.2.3c-1.2.1-2.4.2-3.6.4-1.8.3-3.6.4-5.5.6-4.9.4-9.7.9-14.6,1.4-.3,0-.6.1-.9.1-5.5.3-10.9,1-16.4,1.2-2,.1-4,.2-5.9.4-3.3.3-6.7.4-10.1.5-9.3.2-18.6.2-27.9-.1-3.2-.1-6.4-.3-9.6-.5l-4.6-.3c-3.7-.2-7.3-.3-10.9-.8-1.1-.1-2.1-.2-3.2-.2-2.1-.1-4.3-.3-6.4-.6-1.1-.2-2.1-.2-3.2-.3a54.3,54.3,0,0,1-5.5-.6,24.77,24.77,0,0,0-2.7-.3c-1.7-.1-3.3-.4-5-.6l-8.6-1.2c-3.5-.5-6.9-1-10.4-1.6-2.3-.4-4.5-.8-6.8-1.1-5.6-.9-11.1-2-16.6-3.2-6.1-1.3-12.2-2.7-18.3-4.1-14.1-3.4-28-7.4-41.7-11.9a479.81,479.81,0,0,1-54-21.2,434.76,434.76,0,0,1-54.8-30.1,338.46,338.46,0,0,1-39.1-29.4c-3.3-2.9-6.6-5.8-9.8-8.9-11.6-11.1-22.9-22.4-33.7-34.2-5.1-5.6-10.1-11.4-14.8-17.5-1.8-2.3-3.5-4.6-5.1-7a141.45,141.45,0,0,1-19.9-40.5c-2.2-7-4-14.1-5.5-21.2q-2.4-11.1-4.2-22.5c-.8-4.8-1.6-9.6-2.2-14.5-.7-5.1-1.6-10.2-2.3-15.4-.5-3.2-.8-6.3-1.3-9.5s-1-6.3-1.4-9.5-.8-6.3-1.3-9.5c-.3-2.4-.7-4.8-1-7.2-.4-3-1-6-1.3-9-.5-4.2-1.2-8.5-1.4-12.7,0-1.2-.2-2.4-.3-3.6a1.7,1.7,0,0,0-1.4-1.6V760.1a3,3,0,0,0,1.4-2.2,11,11,0,0,0,.2-1.8c.2-3.5.5-7,1-10.5.6-4.4,1.4-8.7,2.4-13a151.81,151.81,0,0,1,10.2-29.3,214.39,214.39,0,0,1,27.7-44,131.23,131.23,0,0,1,23.3-22.6c3.8-2.9,7.6-5.6,11.5-8.2,4.3-2.9,8.7-5.7,13-8.5,6.6-4.4,13.2-8.7,19.7-13.4.9-.6,1.7-1.3,2.6-1.9a2.77,2.77,0,0,0,1.3-2.3c.1-2.1.2-4.3.4-6.4a125.22,125.22,0,0,0,0-13.7,91.06,91.06,0,0,0-2.6-16.2c-1.1-4.3-2.3-8.5-3.5-12.8a156,156,0,0,1-5.3-28.7c0-.5-.1-.9-.1-1.4a84.76,84.76,0,0,1-.6-8.7c-.3-9.9-.2-19.8.2-29.7.2-5.5.7-11,1-16.4v-.5c.4-2.7.5-5.5.7-8.2.1-1.2.2-2.4.4-3.6s.3-2.1.3-3.2c.2-4,1-7.9,1.2-11.8.8-5.1,1.4-10.3,2.3-15.4,1.1-6.5,2.3-12.9,3.7-19.3,2.8-13.3,6.2-26.4,9.9-39.4a621.74,621.74,0,0,1,23.3-66.4,581.21,581.21,0,0,1,27.2-56.9c6.1-10.9,12.5-21.6,19.6-32A259.41,259.41,0,0,1,254,171.4c6.5-6.3,13.1-12.3,20-18.1,11.2-9.4,22.9-18.3,34.9-26.6a608.88,608.88,0,0,1,78.2-46.3,583.31,583.31,0,0,1,77.2-31.9,436.08,436.08,0,0,1,64.6-16.2c7.7-1.3,11.4-1.9,18.5-2.7.6-.1,1.2-.1,1.8-.2a42.33,42.33,0,0,1,5-.5c1.1-.1,2.1-.1,3.2-.3a77.49,77.49,0,0,1,9.6-.7l5.5-.3a3.49,3.49,0,0,0,1.7-.6h22a3.38,3.38,0,0,0,1.2.6,17.85,17.85,0,0,0,2.3.2,97.75,97.75,0,0,1,13.2,1c1.4.2,2.7.2,4.1.4,5,.8,10,1.4,14.9,2.3,6.3,1.2,12.5,2.5,18.7,4.2a271.55,271.55,0,0,1,50,18.8,330.34,330.34,0,0,1,40.2,23.6A422.32,422.32,0,0,1,784.9,113c10,9,19.6,18.3,29,27.9,7.9,8.1,15.6,16.3,23.1,24.7,1.6,1.8,3.3,3.6,4.9,5.4a2.66,2.66,0,0,0,2.5.9c1.2-.1,2.4-.2,3.6-.4,4.2-.7,8.4-1.3,12.7-1.7a11,11,0,0,1,1.8-.2c1.5-.2,3-.4,4.5-.5,1.2-.1,2.4-.2,3.6-.4,2-.3,3.9-.4,5.9-.6l4.6-.3a84.57,84.57,0,0,1,8.7-.5c6.1-.2,12.2-.1,18.3-.1,5.7,0,11.3.8,16.9,1.2,5,.8,10,1.4,14.9,2.4,5.5,1.1,11.8,2.6,17.7,4.3a255.07,255.07,0,0,1,32.5,12.3,137.79,137.79,0,0,1,18.9,10.2c3.1,2,6.2,3.9,9.2,6,9.4,6.3,18.5,12.9,27.5,19.7,11.2,8.5,22.1,17.2,32.7,26.4,3.7,3.2,7.3,6.5,10.8,9.8a83.42,83.42,0,0,1,8.1,8.7,150.89,150.89,0,0,1,34.2,84.3l.3,2.7c.2,2.1.3,4.3.4,6.4.1,1.8.1,3.7.1,5.5a182.48,182.48,0,0,1-.7,19.6c-.1,1.1-.1,2.1-.2,3.2-.1.9-.1,1.8-.2,2.7-.6,3.5-.7,7-1.4,10.4-.5,4.6-1.4,9-2.3,13.5-1.9,9.4-4.1,18.7-6.7,28-3.3,11.6-7,23-10.9,34.4C1106.1,490,1102,501,1098,512c-2.6,7.2-5.1,14.4-7.3,21.7-1.4,4.7-2.7,9.4-3.7,14.2a34.69,34.69,0,0,0-.6,4.5,1.89,1.89,0,0,0,1,1.9c.6.4,1.2.9,1.9,1.3a157.76,157.76,0,0,1,25.6,23.4,185.19,185.19,0,0,1,14.7,19.3,221.46,221.46,0,0,1,17.6,32c10.2,22.5,17.1,45.9,21.8,70.1q1.8,9,3,18c.6,4.7,1.3,9.4,1.7,14.1.1.6.1,1.2.2,1.8a38.92,38.92,0,0,1,.5,6.8c.1,3,.2,6.1.3,9.1a5.94,5.94,0,0,0,.7,2.6Z"/><path class="cls-1" d="M451.5,1150.4c-5.4,0-10.6-.1-15.8-.2l-7.8-.3c-.9,0-1.7-.1-2.6-.1s-1.5-.1-2.3-.1-1.5-.1-2.1-.1h-1.2a106.35,106.35,0,0,1-11.9-.9h-1.4c-2.6-.1-5.6-.4-8.9-.8-.2,0-.7-.1-1-.1h-.1c-2.3-.2-5-.4-7.9-.9H388c-2.5-.2-4.8-.5-6.7-.8-1.3-.2-2.6-.4-4-.5s-2.9-.4-4.5-.6c-3.8-.5-7.5-1.1-11-1.7h-.3c-2.1-.4-4.3-.7-6.4-1.1-6.3-1-12.5-2.3-17.7-3.4-5.9-1.2-12.1-2.6-19.2-4.3-14.5-3.5-29.3-7.7-43.8-12.5a526.74,526.74,0,0,1-57-22.3,471.79,471.79,0,0,1-58.4-32.1,387.1,387.1,0,0,1-42.2-31.7c-3-2.6-6.8-6-10.8-9.8-14-13.4-25.1-24.7-35.1-35.5-6.3-6.9-11.7-13.2-16.3-19.3-1.9-2.5-3.9-5.2-5.8-7.8a171.74,171.74,0,0,1-23.7-48.2c-2.2-7.2-4.2-14.9-6.1-23.5-1.9-8.8-3.4-17.3-4.5-23.8-.8-4.8-1.7-10-2.4-15.3-.4-2.8-.8-5.6-1.3-8.6-.3-2.1-.7-4.2-1-6.4-.3-2-.5-3.9-.8-5.7-.2-1.4-.3-2.7-.5-4s-.4-2.9-.7-4.5-.5-3.3-.7-5c-.3-2.1-.6-4.1-.8-6.1-.2-1.2-.3-2.4-.5-3.6-.3-2.3-.6-4.6-1-7-.1-1-.3-2-.5-3-.3-1.9-.6-3.8-.9-5.9L0,792V744.9l2.7-1.6c0-.2.1-.5.1-.7.7-5,1.6-10.2,2.9-15.7a174.5,174.5,0,0,1,12.1-34.7,248.67,248.67,0,0,1,31.1-49.6A157.69,157.69,0,0,1,77,615.4c4.1-3.1,8.5-6.2,13-9.2,3.1-2.1,6.2-4.1,9.2-6.1,1.3-.9,2.6-1.7,3.9-2.6,3.8-2.5,7.8-5.1,11.7-7.8,0-1.8-.1-3.6-.2-5.2a73.87,73.87,0,0,0-1.7-10.7c-1-3.9-2.1-7.7-3.4-12.3a169.83,169.83,0,0,1-6.2-34.1h0c-.5-4-.7-7.6-.8-11.2-.3-10.4-.3-21.1.2-31.7.2-4.2.4-8.2.7-12.1.1-1.6.2-3.3.3-4.9,0-.6.1-1.4.2-2.5.2-1.4.3-3.2.4-5.1l.1-1.2c.1-1.5.3-2.8.4-3.8,0-.3.1-.6.1-.9.1-.5.1-1,.2-1.5a.9.9,0,0,1,.1-.5c.2-3,.5-5.6.8-8a33.66,33.66,0,0,0,.4-4l.1-1.3.2-1.3c.3-2,.6-4,.9-6.2.4-3,.9-6.2,1.4-9.5,1.2-6.9,2.5-13.7,3.9-20.3,2.8-13.2,6.2-26.7,10.4-41.5a688.14,688.14,0,0,1,24.3-69.3,570.25,570.25,0,0,1,28.6-59.7c6.7-12.1,13.7-23.6,20.9-34.1a288.94,288.94,0,0,1,37.3-44.7c7-6.7,14.2-13.2,21.5-19.4,11.4-9.5,23.7-19,36.8-28.1a648.32,648.32,0,0,1,81.7-48.4,606.62,606.62,0,0,1,80.9-33.4C479.5,14.9,501.9,9.2,524,5.6c8.2-1.4,12.2-2,20-2.9h.3c2.9-.5,5.5-.7,7.8-.9h1.3A108.11,108.11,0,0,1,565.3.9l1.6-.9h37.6l1.4,1c3.4.2,6.7.4,10.2.9h.3c1.1.1,2.6.2,4.6.5,1.5.2,3,.5,4.5.7q5.4.75,11.1,1.8c7.3,1.4,14.1,2.9,20.7,4.6a297,297,0,0,1,55.1,20.7A356.3,356.3,0,0,1,756,55.8a441.7,441.7,0,0,1,46.9,37.1c9.6,8.6,19.6,18.2,30.3,29.2,6.4,6.6,13,13.6,20,21.2,1.3-.2,2.6-.3,4-.5h0c.4-.1.9-.1,1.5-.2l4.8-.6c.8-.1,1.5-.1,2-.2.2,0,.5,0,.6-.1a66.1,66.1,0,0,1,8.3-.8h.6c.9-.1,1.9-.1,2.4-.2,4.2-.5,8.1-.6,11.1-.7,6.5-.2,13.1-.1,19.2-.1a132.39,132.39,0,0,1,13.4.8c1.8.2,3.5.3,5.1.4l1.2.1,1.2.2c1.4.2,2.9.4,4.4.7,3.7.5,7.6,1.1,11.7,2,7.1,1.5,14,3.1,20,4.9a272.75,272.75,0,0,1,36,13.6,182.66,182.66,0,0,1,22.3,12c3.5,2.2,6.7,4.3,9.8,6.3,8.9,5.9,18.3,12.7,28.9,20.7,13,9.9,24.2,18.9,34.2,27.6,4.1,3.6,8.1,7.2,11.5,10.4a128.94,128.94,0,0,1,10.8,11.4,180.9,180.9,0,0,1,27.8,46.6,178.62,178.62,0,0,1,12.5,52.8,1.7,1.7,0,0,0,.1.7c.1.6.1,1.4.2,2.3l.1,1.2c.1,1.9.3,3.8.4,5.9.1,2.4.1,4.6.1,6.7a183.61,183.61,0,0,1-.9,22.8v.6c0,.5-.1,1.1-.1,1.6h0v.3c-.1,1.1-.2,2.9-.5,5.1-.1.6-.2,1.6-.3,2.7-.2,2-.5,4.5-1,7.3-.6,5.2-1.6,10-2.4,14.3l-.1.3c-1.9,9.7-4.4,19.9-7.2,30.1-3.1,11-6.8,22.8-11.4,36-2.6,7.6-5.4,15.2-8.1,22.6l-3.9,10.8c-2.3,6.5-4.8,13.5-6.9,20.4-.1.2-.1.4-.2.5a182.37,182.37,0,0,1,18.7,18.6,209.1,209.1,0,0,1,16.9,22.2,267.73,267.73,0,0,1,19.8,35.9c10.6,23.3,18.3,48.2,23.8,76.3,1.4,7.1,2.4,13.5,3.3,19.6l.3,2.4c.6,4.1,1.2,8.4,1.6,13v.1a60.14,60.14,0,0,1,.8,10.2c0,1.2.1,2.3.1,3.5V746l.8,1.9v51.6a31.09,31.09,0,0,1-.8,6.9c-.1,1.9-.1,3.6-.2,5.4a101.33,101.33,0,0,1-.8,10.9q-.6,6.6-1.5,12.6a25.12,25.12,0,0,1-.4,2.7c-.7,5.4-1.6,10.7-2.4,15.1-1.1,6.5-2.5,13-4.1,19.5a322,322,0,0,1-10.8,36.6,287.7,287.7,0,0,1-17.3,39.3,230.68,230.68,0,0,1-21.7,33.6,245.92,245.92,0,0,1-19.4,21.8c-6.5,6.6-13.7,13.3-22.4,21-7.3,6.5-14.6,12.6-20.1,17.1l-9.2,7.7c-4.9,4.1-10,8.4-15.1,12.6-2.7,2.3-5.5,4.4-8.3,6.6a75.34,75.34,0,0,1-22,11.8c-2.9,1-5.8,2-9.1,3.2-4.9,1.8-9.9,3.8-15.2,6l-1.9.8c-16.9,6.9-33.8,14.4-49.5,21.5-5.2,2.3-10.7,4.8-16.5,7a102.62,102.62,0,0,1-15.7,4.9,75.35,75.35,0,0,1-14,2.1c-.6,0-1.2.1-1.6.1a102.31,102.31,0,0,1-11.8.6c-8.8.1-17.6,0-26.3-.2-13.7-.4-27.8-.5-41.5-.5h-.4c-20.7-.1-36.6-.2-51.8-.3-3.4,0-6.8-.1-10-.2-1.4,0-2.8-.1-4.2-.1-1.9,0-3.8-.1-5.7-.1l-12.5-.3c-4.3-.1-9.6-.2-15-.7h-.5c-5.5-.1-10.5-.5-15.4-.9l-3.7-.3a81.62,81.62,0,0,1-9.6-1.5l-.7-.1a29.1,29.1,0,0,1-22-19.9c-.2-.8-.7-2.4-1.1-4.3a56.27,56.27,0,0,1,1-25.5,47.26,47.26,0,0,1,16.4-24.9,55.31,55.31,0,0,1,13.3-7.8,71.53,71.53,0,0,1,15.1-4.4,114,114,0,0,1,11.5-1.5,165.37,165.37,0,0,1,19.3-.6c1.9,0,3.8.1,5.4.2a5.7,5.7,0,0,1,1.3.1c1,.1,2.1.1,3.1.2,1.5.1,3,.2,4.4.2,3,.1,5.9.3,8.6.5l1.3.1c5.3.4,10.6.7,16.1,1l3,.2H794c5.2.1,10.7.2,16.5.7a17.77,17.77,0,0,0,2.5.1h1.1a93.4,93.4,0,0,1,10,.8c.3,0,1.3.1,1.6.1h.7c2.7.1,5.8.3,9.1.7,3.1.1,6,.4,8.9.6,3.3.2,6.4.5,9.3.6,8.7.2,15.4.2,21.6,0,.8,0,2.5-.1,3.2-.2,1.6-.2,3.1-.4,4-.5a87.82,87.82,0,0,0,18.5-3.7c1.3-.4,2.9-1,4.6-1.6a12.13,12.13,0,0,1,1.4-.5c14.1-5.1,25.7-9.6,36.5-14.2,9.2-3.9,17.5-7.8,25.4-11.9a248.81,248.81,0,0,0,40-26c7.7-6.1,15.7-13,24.3-21,8.3-7.7,16.8-16,26.1-25.3a130.72,130.72,0,0,0,21.5-29.1,169.28,169.28,0,0,0,11.5-25.9,217.55,217.55,0,0,0,7.6-27c1.2-5.6,2.2-11.1,3-15.8.2-1.1.4-2.5.6-3.9s.4-3.1.7-4.8c.2-1.4.4-3.1.6-4.9s.4-3.7.7-5.7c.2-2.3.3-4.5.5-6.6.2-2.6.4-5.1.5-7.3.1-1.7.1-3.4.2-5.1.1-2.8.2-5.4.3-8,.3-7.8.3-15.6,0-23.1-.1-1.5-.1-2.9-.2-4.4-.1-2.1-.2-4.1-.2-6.2v-.7c-.1-3-.2-5.8-.5-8.2a40.43,40.43,0,0,1-.3-4.4,3.42,3.42,0,0,0-.1-1.1c-.1-1.5-.2-3-.4-4.6l-.2-2.4-.3-3c-.1-1.5-.3-3-.5-4.6v-.3a20.63,20.63,0,0,1-.3-3.3c-.1-1.2-.3-3-.5-4.8-.2-1.5-.4-3.3-.6-5.2-.2-1.6-.4-3.4-.7-5.4-.2-1-.3-2-.4-3l-.3-2.1c-.3-1.9-.5-3.6-.8-5.2s-.5-3-.7-4.3c-.2-1.1-.3-2.2-.5-3-.4-1.9-.9-3.9-1.5-5.9-1.4-4.4-3.1-8.9-4.5-12.4-.9-2.3-1.7-4.2-2.5-5.9l-1.6-3.6c-3.2-7.3-6.6-14.8-9.9-22.1-1.2-2.7-2.7-5.6-4.2-8.6l-.5-1q-1.35-2.55-3.3-5.7c-1.1-1.7-2.1-3.1-3.1-4.4a17.71,17.71,0,0,0-5.6-4.6,62.71,62.71,0,0,0-6.5-2.8c-3-1.1-6.2-2.1-9.6-3.2-1.1-.3-2.2-.7-3.2-1-1.8-.6-3.5-1.1-5.3-1.7-2.2-.7-4.3-1.4-6.5-2.1-1.5-.5-2.8-1-3.6-1.3l-.2-.1a29.67,29.67,0,0,1-17.9-20.7,28.63,28.63,0,0,1-.7-3.6,98.43,98.43,0,0,1,.1-26,142.22,142.22,0,0,1,3.8-18c2-7.2,4.6-14.7,8-23.5,2.4-6.2,5.2-12.7,8.9-20.9,1.2-2.6,2.3-5.2,3.5-7.8,3-6.7,6.1-13.6,9.1-20.4,4.9-11.1,8.9-20.9,12.1-29.9a252.32,252.32,0,0,0,7.4-24.4c1-3.9,2-9.1,3-15,.2-1.3.4-2.9.6-4.6s.4-3.4.6-5.4v-1.3c.2-4.6.3-8.6.2-12.2-.1-4-.3-7-.6-9.5-.5-3.7-1-6.9-1.6-9.9a108.46,108.46,0,0,0-6.4-20.9,136.55,136.55,0,0,0-13.7-24.9c-2.4-3.6-5.2-7.2-8.3-11.1a86,86,0,0,0-12.4-12.5,158.59,158.59,0,0,0-15-11c-5.7-3.7-12-7.5-19.9-11.9-5.7-3.2-11.6-6.5-17.3-9.6-2.1-1.1-4.1-2.3-6.2-3.4a117.82,117.82,0,0,0-16.4-7.7,87.72,87.72,0,0,0-14.5-3.9c-.8-.1-1.8-.3-3-.5-1.5-.2-3.2-.5-5.1-.8a2.77,2.77,0,0,1-.9-.1l-1.7-.2c-3.9-.4-7.6-.8-11-.9h-1l-1-.1a181.77,181.77,0,0,0-20.9-.5,41.24,41.24,0,0,0-8.4,1.1,22.45,22.45,0,0,0-5.4,2,35.82,35.82,0,0,0-4,2.3c-1.4.9-2.7,1.7-4.2,2.7l-1.4.9c-.6.4-1.1.7-1.7,1.1-1.2.8-2.5,1.6-3.8,2.5l-.1.1a35.2,35.2,0,0,1-13.4,6,51.61,51.61,0,0,1-15.6.9l-.5-.1a55.58,55.58,0,0,1-8-1.2,46.76,46.76,0,0,1-18.4-9.1,53,53,0,0,1-7.6-7.4,68.6,68.6,0,0,1-6.7-9.3c-1.6-2.6-3.1-5.3-4.6-8s-2.8-5.3-4.1-7.9l-.8-1.5c-2.3-4.5-4.8-9.3-7.5-13.9a128.46,128.46,0,0,0-12.1-17.5,133.67,133.67,0,0,0-20.5-20c-10.1-7.8-20.8-15.5-32.8-23.3-6.3-4.1-12.6-8-18.9-11.6a274.39,274.39,0,0,0-33.6-16.6,223.79,223.79,0,0,0-30-9.9c-4.6-1.2-8.9-2.1-13.1-2.8-3.9-.7-8-1.2-11.8-1.8-2-.3-4.4-.4-6.9-.6-2.3-.2-4.6-.3-7.2-.6H570c-.8,0-2,.1-3.2.2-.6,0-1.3.1-1.9.1a19.53,19.53,0,0,1-2.9.2c-2.6.1-5.6.4-8.8.8-1.1.1-2.2.2-3.3.4-2,.2-4,.5-6.1.8-4.6.8-9.6,1.6-14.2,2.5-5.1,1.1-9.6,2.1-13.8,3.2-10.6,2.7-20.1,5.6-29.2,8.9-8.4,3-17.3,6.6-27.3,11-14.3,6.4-28.7,13.5-44,21.7a728.41,728.41,0,0,0-62.5,37.8c-12.9,8.8-24.2,17.1-34.4,25.5a266.35,266.35,0,0,0-20.6,18.6,121.82,121.82,0,0,0-11.2,12.8c-2.7,3.5-5.8,7.7-8.7,11.7A279.17,279.17,0,0,0,252,287c-3.5,7.2-7,14.9-10.5,22.7-4,9.2-8.1,18.6-12.1,27.7l-1.6,3.6a364.37,364.37,0,0,0-13.4,36.6c-3.6,11.5-6.7,23.5-9.4,35.7-1.6,7.1-2.8,13.6-3.8,19.7l-.3,1.6c-.9,5.3-1.7,10.3-2.3,15.2l-.1,1.1-.2,1.1c-.1.7-.3,2.1-.4,3.3-.2,1.6-.3,3.6-.7,5.7-.2,2.2-.4,4.4-.6,6.3a65.47,65.47,0,0,0-.5,7.2,49.52,49.52,0,0,1-.3,5.2,259.76,259.76,0,0,0-.3,26.3c.1,4.1.4,8.4.8,12.9.6,6.7,1.4,12.6,2.4,18,.9,5.1,1.9,9.6,3,13.7a88.14,88.14,0,0,0,4.6,12.8c1,2.4,2.1,4.8,3.3,7.4.7,1.6,1.4,3.2,2.2,4.9l.8,1.9c1.6,3.6,3.2,7.3,4.8,11a127.83,127.83,0,0,1,4.9,13.8,58.77,58.77,0,0,1,2.4,13.7,40.12,40.12,0,0,1-.2,6,29.73,29.73,0,0,1-4.8,12.9,28.27,28.27,0,0,1-4.1,4.9,72.89,72.89,0,0,1-10.9,9.1,115.35,115.35,0,0,1-10.9,6.8c-4,2.3-8.3,4.5-13.9,7.2-1.7.9-3.5,1.7-5.2,2.6-4.4,2.2-9,4.4-13.4,6.6-6.5,3.3-12.1,6.4-17.3,9.7A124.86,124.86,0,0,0,129.9,692a85,85,0,0,0-16.6,18,88.37,88.37,0,0,0-11.5,23.7,126.36,126.36,0,0,0-4,17.6c-.2,1.5-.4,3.3-.6,5.2-.2,1.7-.4,3.7-.7,5.8v1.2c-.4,7.7-.3,15.7.1,24.5,0,.4.1,1,.1,1.6a2,2,0,0,0,.1.8l.1.9c.2,2.2.3,4.5.5,6.7.1,1.7.3,3.3.4,5.1v.3a20,20,0,0,1,.2,3c.1,2,.3,4.3.6,6.7.2,2.2.5,4.5.6,7,0,.2.1.7.1,1.2s.1.8.1,1.2v.3c.1.6.2,1.6.3,2.7.4,4.5,1,9.1,1.6,13l.3,2.4.6,4.2a255.12,255.12,0,0,0,5.9,29.2,173.28,173.28,0,0,0,8.5,24.6,144.46,144.46,0,0,0,20.8,34A188.21,188.21,0,0,0,154.3,951,304.66,304.66,0,0,0,183,974.7a411.35,411.35,0,0,0,40,25.7,532.8,532.8,0,0,0,76.7,35.6c15,5.5,30.3,10.4,45.4,14.5,8.4,2.3,16.1,4.1,23.4,5.6,6.3,1.3,12.2,2.5,18.1,3.5,2,.4,4,.7,6.2,1s4.6.7,7,1.1c2,.2,3.7.5,5.2.7,1.1.2,2.4.3,2.9.4l1.8.1,1.8.3c1,.2,2.7.3,4.5.5,2,.2,4.3.3,6.8.7,2.7.1,5.4.3,8,.5,4.8.3,9.3.6,13.5.6h13.3c3.1,0,6.7-.1,10.1-.4a42.14,42.14,0,0,1,4.6-.3h.5c1.9-.1,3.6-.2,4.6-.3,2-.3,3.7-.4,4.8-.5h.3c.8-.1,1.7-.2,2.8-.3q2.25-.3,4.2-.6c1.3-.2,2.5-.3,3.5-.5,1.2-.2,2.2-.4,3.2-.5A85.52,85.52,0,0,0,510,1059l1.8-.5c5.5-1.6,11.1-3.2,16.9-4.8,8.8-2.3,14.7-3.9,22.2-5.3a5,5,0,0,1,1.2-.2,75.69,75.69,0,0,1,8.7-1.4,98.09,98.09,0,0,1,11.8-1.2c.7,0,1.4-.1,2.2-.1a77.76,77.76,0,0,1,14.9.6,52.51,52.51,0,0,1,15.8,4.4,41.41,41.41,0,0,1,23.4,28,47.91,47.91,0,0,1,.7,18.9,81.25,81.25,0,0,1-5.3,18.5,30.13,30.13,0,0,1-15.8,15.8,76.57,76.57,0,0,1-9.6,3.2q-7.5,1.95-15,3.3c-4.7.8-9.5,1.7-14.3,2.5-3.1.5-6,.9-8.5,1.3l-4.7.6c-1.7.2-3.2.4-4.7.6-3,.4-6,.8-8.8,1.2-1.8.2-3.4.4-5.1.6-1.9.3-3.7.4-5.3.6-1.9.2-3.6.4-5,.6a37.1,37.1,0,0,1-4.8.5h-.4c-.4,0-.9.1-1.3.1s-.7.1-.9.1c-2.3.3-4.4.5-6.1.7-.3,0-.7.1-1,.1-3.5.3-7.1.7-10.5,1l-3.4.3a18.7,18.7,0,0,1-2.7.2c-2.1.1-4.4.3-6.8.5-2.9.3-6.2.6-9.7.7-1.5.1-3.1.1-4.6.3-3.7.3-7.5.5-12.1.6C460.2,1150.3,455.8,1150.4,451.5,1150.4ZM925.6,232ZM600.1.2h0Z"/><path class="cls-1" d="M628.2,1459.4c-.2-.2-.3-.6-.5-.7-.6-.4-1.3-.8-2-1.2a13.83,13.83,0,0,1-4.6-4.4,21.83,21.83,0,0,1-2.7-5.8,45.56,45.56,0,0,1-1.3-5.3c-.5-2.9-.8-5.7-1.1-8.6-.5-5.5-.6-11-.6-16.5-.1-13.7.1-27.5.3-41.2s-.1-27.1-.5-40.7c-.1-2-.2-4-.4-5.9a77,77,0,0,1-.3-9.6c.1-3.7.3-7.3.4-11,.1-4.9.3-9.8.4-14.6q.15-9.6.6-19.2c.2-4.6.3-9.1.4-13.7q.15-9.15.6-18.3c.2-4.1.2-8.2.3-12.3q.15-10.05.6-20.1c.2-4,.2-7.9.3-11.9q.15-10.05.6-20.1c.2-4.7.2-9.5.4-14.2.2-5.8.4-11.6.5-17.4.1-4.6.3-9.1.4-13.7.1-6.3.3-12.5.6-18.8.2-4,.2-7.9.3-11.9.1-6.9.3-13.7.6-20.6.2-4.1.2-8.2.3-12.3.1-6.6.3-13.1.6-19.7.2-4.4.3-8.8.3-13.3.1-6.3.3-12.5.6-18.8.2-4.6.3-9.1.4-13.7q.15-9.15.6-18.3c.2-3.4.2-6.7.3-10.1s.3-6.7.7-10,.7-6.4,1.2-9.5c.4-2.7.8-5.4,1.3-8.1,1-5.4,2.1-10.8,3.1-16.2s1.7-10.5,2.3-15.8c.8-7.4,1.2-14.9,1.6-22.4.2-4.4.3-8.8.7-13.2.1-1.5.2-3,.2-4.6.2-4,.3-7.9.7-11.9.1-1.4.2-2.7.2-4.1.2-4,.3-7.9.7-11.9.1-1.1.1-2.1.2-3.2.2-4.6.3-9.1.5-13.7a92.06,92.06,0,0,0-.3-10.5,19.55,19.55,0,0,0-3.8-10.1c-.8-1.1-1.7-2.1-2.6-3.2-1.4-1.6-2.8-3.2-4.3-4.8a178.84,178.84,0,0,1-12.4-15.2c-3.8-5.2-7.5-10.4-11.3-15.5-2.7-3.7-5.5-7.3-8.3-10.9-1.7-2.2-3.5-4.3-5.3-6.3a82.94,82.94,0,0,0-18-15.4c-3-1.9-6-3.6-9.1-5.2-4.8-2.6-9.8-5-14.7-7.3-5.1-2.4-10.2-4.8-15.3-7.1-12.1-5.5-23.8-11.6-35.5-18-5.5-3-10.9-6-16.4-9.1-4.4-2.4-8.9-4.7-13.4-6.8a172.94,172.94,0,0,0-28.8-10.2c-8.7-2.2-13.7-3.2-22.3-4.8-4.6-.9-9.3-1.5-14-2.4-3.2-.2-6.3-1.1-9.5-1.3a6.75,6.75,0,0,1-1.4-.2,2.74,2.74,0,0,1-2.1-1.5,130.74,130.74,0,0,1-7.1-18.3,74.79,74.79,0,0,1-2-9.4,23.33,23.33,0,0,1,.5-9.1,10.86,10.86,0,0,1,8.6-8,27.75,27.75,0,0,1,9.1-.4,78,78,0,0,1,17.7,4.5,193.33,193.33,0,0,1,19.3,8.3c9.3,4.5,18.4,9.5,27.3,14.8,10.8,6.3,21.4,13,31.7,20,2.7,1.8,5.4,3.4,8.2,5,9.1,5,18.5,9.4,27.9,13.7l22.5,10.2c5.8,2.7,11.6,5.5,17.2,8.5a147.6,147.6,0,0,1,27,18c2.5,2,4.9,4.1,7.3,6.3,3,2.6,5.9,5.3,8.9,7.9,3.3,2.9,6.6,5.8,10.1,8.5a97,97,0,0,0,9.1,6.2,6.12,6.12,0,0,0,1.2.5c.4.2,1.1-.1,1.1-.5,0-.1.1-.3.1-.4.4-5.2,1.1-10.3,1.2-15.5,0-1.2.1-2.4.2-3.7a310.11,310.11,0,0,0,.1-33.4c-.1-2.4-.2-4.9-.3-7.3a118.7,118.7,0,0,0-.7-11.9c-.1-1.4-.2-2.7-.3-4.1-.1-2.7-.3-5.5-.6-8.2v-.5c-.2-4.9-.9-9.7-1.2-14.6-.1-1.5-.3-3-.5-4.5a6.75,6.75,0,0,0-.2-1.4L631.4,634c-.4-3.8-.9-7.6-1.3-11.4a11,11,0,0,1-.2-1.8c-.5-4.9-1.1-9.7-1.8-14.5-.5-3.5-.8-7-1.2-10.4s-.9-6.9-1.4-10.4c-.4-3-.8-6-1.2-9.1-.5-4.4-1.1-8.8-1.7-13.2-.5-3.6-.8-7.3-1.3-10.9-.5-3.9-.9-7.9-1.4-11.8,0-.3-.1-.6-.1-.9-.4-4.6-.8-9.1-1.2-13.7-.1-.9-.1-1.8-.2-2.7-.5-3.9-.6-7.9-.8-11.9-.1-2.1-.2-4.3-.3-6.4a133.45,133.45,0,0,1,.1-15.5c.1-1.5.2-3,.3-4.6a72,72,0,0,1,1.9-12.2,36.92,36.92,0,0,1,1.9-5.6,27.57,27.57,0,0,1,2.5-4.4,14.89,14.89,0,0,1,4.3-4,15.07,15.07,0,0,1,8.8-2,31.93,31.93,0,0,1,8,1.8,14.59,14.59,0,0,1,6.9,5.1,23.94,23.94,0,0,1,2.9,5.2,36.92,36.92,0,0,1,1.9,5.6,72.2,72.2,0,0,1,2,12.2,226.66,226.66,0,0,1,.7,23.3c-.1,2.4-.2,4.9-.3,7.3l-.6,27c-.1,5.2.1,10.4.3,15.6a17.7,17.7,0,0,0,.1,2.3c.5,3.5.7,7,1.1,10.5.3,2.3.5,4.5.7,6.8.1,1.1.2,2.1.3,3.2.2,1.5.3,3,.5,4.5.2,1.7.3,3.3.5,5,.1,1.4.3,2.7.4,4.1.2,1.7.3,3.3.5,5,.1,1.2.3,2.4.4,3.6.2,2.1.3,4.3.6,6.4.2,1.1.2,2.1.3,3.2.2,2.1.4,4.2.6,6.4a17.85,17.85,0,0,1,.2,2.3c.2,2.7.5,5.5.7,8.2.5,4.9.8,9.7,1.3,14.6v.5c.5,5.2.9,10.3,1.4,15.5a.9.9,0,0,0,.1.5c.4,5.3.8,10.6,1.2,16,.2,2.3.4,4.6.5,6.8,0,.5.1.9.1,1.4.4,6.5.8,13.1,1.2,19.6.1,2.1.3,4.3.4,6.4.1,2.4.3,4.9.4,7.3.2,4,.4,7.9.6,11.9.1,3,.3,6.1.3,9.1.2,6.7.3,13.4.5,20.1.2,7.3.2,14.6,0,22-.2,6.6-.3,13.1-.5,19.7-.1,3.4-.3,6.7-.5,10.1-.1,1.5-.2,3-.2,4.6-.2,4.6-.3,9.1-.8,13.7a34.64,34.64,0,0,0-.2,4.6c-.1,3-.3,6.1-.6,9.1v.5l-1.2,20.1c-.2,2.6-.3,5.2-.5,7.8-.1,2.4-.3,4.9-.4,7.3-.2,2.7-.3,5.5-.5,8.2-.1,2.3-.3,4.6-.4,6.9-.2,3.8-.3,7.6-.6,11.4-.2,2.3-.2,4.6-.3,6.9-.2,4.6-.3,9.1-.6,13.7-.2,3.2-.2,6.4-.4,9.6-.2,5.2-.4,10.4-.6,15.5-.1,4.4-.2,8.8-.4,13.3-.2,7.6-.4,15.2-.6,22.9-.2,7.3-.4,14.6-.3,22a.67.67,0,0,0,.5.7.78.78,0,0,0,.8-.2,9,9,0,0,0,1-.9c.8-.7,1.5-1.5,2.3-2.3,19.8-19.7,39.5-39.4,59.3-59.1,1.9-1.9,3.7-4,5.6-6.1,8.2-9.3,16.6-18.3,25.2-27.2,11.5-11.8,23.7-22.9,36.2-33.6,8.5-7.2,17.2-14.2,25.8-21.2,14.3-11.6,28.5-23.5,42.2-35.8,5.2-4.7,10.4-9.4,15.6-14.2,5-4.5,9.9-9,15.1-13.3,3.6-3,7.4-5.9,11.3-8.6a74.79,74.79,0,0,1,8.6-5.1,44.52,44.52,0,0,1,9.4-3.6,33.28,33.28,0,0,1,7.7-1.1,22.31,22.31,0,0,1,6.8.9,1.72,1.72,0,0,1,.6.6,2.92,2.92,0,0,1,.2.9,52.24,52.24,0,0,1-3,12.4,68.83,68.83,0,0,1-7,13.8,125.27,125.27,0,0,1-11.3,15A158.38,158.38,0,0,1,905,835.3a266.62,266.62,0,0,1-29.7,24.3,294.37,294.37,0,0,0-24,19c-9.3,8.1-18.4,16.4-27.4,24.9-12.5,11.7-24.7,23.6-36.8,35.6-15.7,15.6-31.2,31.3-46.4,47.4-4.3,4.6-8.5,9.2-12.7,13.8a251,251,0,0,0-22.7,28.7c-4.3,6.3-8.4,12.7-12.5,19.1-3.1,4.9-6.2,9.8-9.4,14.6-3.9,6-8,11.9-12.2,17.7-3.3,4.4-6.7,8.7-10.3,12.9l-1.8,2.1a4.53,4.53,0,0,0-1.4,3.3c-.1,3.5-.3,7-.4,10.5-.1,4.7-.2,9.5-.2,14.2-.1,21-.1,42.1-.1,63.1v131.3c0,20.4-.1,40.9-.3,61.3-.1,13.6-.5,27.1-.8,40.7,0,1.7-.1,3.4-.2,5-.2,4.3-.4,8.5-.6,12.8-.2,3.8-.7,7.6-1.1,11.4a11.07,11.07,0,0,1-.7,2.6,1.79,1.79,0,0,1-.5.7,3,3,0,0,1-.7.5,59.38,59.38,0,0,1-11.2,5.1c-.9.3-1.7.7-2.5,1a2.17,2.17,0,0,0-.6.7C634.3,1459.4,631.2,1459.4,628.2,1459.4Z"/><path class="cls-1" d="M650.4,1487.1h-37l-5.5-8.2a40.49,40.49,0,0,1-9.9-10.7,49.67,49.67,0,0,1-6-13,77.51,77.51,0,0,1-2.1-8.6c-.6-3.4-1-6.8-1.4-10.9-.6-6.9-.7-13.3-.7-18.7,0-12.8,0-26.4.3-41.7.2-13.5-.1-27.5-.5-39.5a40.47,40.47,0,0,0-.3-4.3,118.87,118.87,0,0,1-.4-13.1c.2-4.4.3-7.7.4-10.8v-.7c.1-4.5.3-9.2.4-13.7v-.5c.1-6.3.3-12.8.6-19.4.1-3.2.2-6.6.3-10.1a27.15,27.15,0,0,1,.1-2.9c.1-6,.3-12.5.6-19,.1-3.1.2-6.2.3-9.6v-2.3c.1-6.7.3-13.7.6-20.7.1-2.8.2-5.7.2-8.8v-2.4c.1-7,.3-13.9.6-20.8.1-2.6.2-5.4.2-8.3,0-1.8.1-3.6.1-5.4l.3-9.3c.1-2.7.2-5.4.2-8.1.1-5,.3-9.2.4-13.5.1-5.9.3-12.7.6-19.5q.15-4.5.3-9.3v-2.1c.1-6.8.3-13.9.6-21,.1-2.9.2-5.9.3-9.1v-2.5q.15-10.2.6-20.4c.1-3.1.2-6.3.3-9.7a28.1,28.1,0,0,1,.1-2.9c.1-6.2.3-12.8.6-19.4.2-3.4.2-6.9.3-10.6v-2.5c.1-6.4.3-12.7.6-19,.1-2.3.2-4.7.2-7.2v-2.2a122.35,122.35,0,0,1,.9-12.7l.3-2.7c.3-2.4.6-5.1,1-8,.1-.9.3-1.8.4-2.8.3-1.8.6-3.8,1-5.9.4-2.4.9-4.8,1.4-7.1.6-3.1,1.2-5.9,1.6-8.8,1-5.7,1.6-10.1,2.1-14.2.7-6.7,1.1-13.5,1.4-20.5.1-1.1.1-2.2.1-3.4q.15-5.25.6-11.1c0-.5.1-1.3.1-2.2v-1.6c.2-4.1.3-8.3.8-12.8,0-.4.1-1.2.1-1.9l.1-1.7c.2-3.9.3-8,.8-12.4a7.17,7.17,0,0,1,.1-1.3v-.2c.2-5.5.4-9.7.5-13.6a38.86,38.86,0,0,0-.1-4.8c-1-1.2-2.2-2.4-3.3-3.7l-.5-.5a189.14,189.14,0,0,1-14.3-17.6c-1.2-1.7-2.5-3.4-3.7-5.1-2.5-3.4-5-6.9-7.5-10.3s-5.3-7-7.9-10.4c-1.4-1.7-2.9-3.6-4.3-5.2a53,53,0,0,0-11.9-10.1c-2.3-1.4-4.8-2.9-7.5-4.3-3.8-2-8-4.1-13.5-6.7-4.5-2.1-9.7-4.6-15.1-7-11.9-5.5-24.2-11.7-37.3-18.9-2.9-1.6-5.8-3.2-8.6-4.8-2.6-1.4-5.2-2.9-7.8-4.3-3.9-2.2-7.9-4.2-11.7-6a142.42,142.42,0,0,0-24.1-8.5c-7.9-2-12.3-2.9-20.5-4.4-1.9-.3-3.9-.7-6-1s-4.5-.7-6.8-1.2c-2-.2-3.8-.5-5.3-.8-.8-.1-1.8-.3-2.2-.3a22.33,22.33,0,0,1-4.7-.7h0a30.3,30.3,0,0,1-22-16.9,168,168,0,0,1-8.6-22.2,93.36,93.36,0,0,1-2.9-13.6,48.86,48.86,0,0,1,1.4-20.6A38.55,38.55,0,0,1,382,592.8a53.32,53.32,0,0,1,18.8-.9,110.64,110.64,0,0,1,23.7,5.9,233.36,233.36,0,0,1,22,9.4c9.1,4.4,18.7,9.6,29.2,15.8,11.3,6.6,22.5,13.7,33.2,21,1.8,1.2,3.7,2.4,5.9,3.6,7.4,4,15.4,8,26.1,12.9,3.2,1.4,6.4,2.9,9.6,4.3l13,5.9c5.7,2.6,11.8,5.6,18.4,9A173.81,173.81,0,0,1,607.6,696c0-1.3-.1-2.5-.1-3.7v-1.2c-.1-3.3-.2-6.4-.5-9.1a47.26,47.26,0,0,1-.3-4.9v-1.6c-.1-1.9-.2-3.7-.4-5l-.3-3c-.1-2.3-.4-4.9-.6-7.6-.2-2-.4-4-.6-6.2,0-.6-.1-1.5-.2-2.4,0-.4-.1-.8-.1-1.2h0a14.93,14.93,0,0,0-.2-1.7c-.1-1.4-.3-2.7-.4-4.1-.3-2.8-.5-5.4-.8-8s-.6-5.2-.9-7.9c-.1-1-.2-2-.4-3v-.1c-.1-.5-.2-1.3-.3-2.3-.5-4.6-1.1-9.3-1.7-13.6-.3-2.2-.5-4.4-.8-6.4-.2-1.5-.3-2.9-.5-4.2-.2-1.9-.5-3.9-.8-5.9-.2-1.5-.4-2.9-.6-4.4v-.2c-.4-3-.8-6.1-1.2-9.2-.5-4.2-1-8.6-1.6-12.8-.4-2.7-.6-5.4-.9-7.9-.1-1.2-.3-2.3-.4-3.5-.4-3.3-.8-6.6-1.1-9.9l-.2-1.6a8.44,8.44,0,0,1-.2-1.9c-.4-4.6-.8-9.2-1.2-13.7a15.56,15.56,0,0,1-.1-2v-.1c-.6-4.5-.7-8.6-.9-12.3a6.6,6.6,0,0,0-.1-1.4c0-1-.1-2.1-.2-3.2s-.1-2-.2-3.1a146.12,146.12,0,0,1,.2-18.9c.1-1.3.2-2.8.3-4.1a95.59,95.59,0,0,1,2.7-17.1,63.19,63.19,0,0,1,3.4-10.1,49.78,49.78,0,0,1,5.6-9.8,43.68,43.68,0,0,1,12.7-11.6,42.31,42.31,0,0,1,25.1-5.6,56.33,56.33,0,0,1,14.8,3.3,42.06,42.06,0,0,1,19.7,14.4,54.61,54.61,0,0,1,6.3,10.9,67.58,67.58,0,0,1,3.3,9.9,99.05,99.05,0,0,1,2.7,16.9c.5,7.1,1,16.5.7,26.2,0,.9-.1,1.8-.1,2.8-.1,1.5-.1,2.9-.1,4.3-.2,8.6-.4,17.7-.6,26.9-.1,4.7.1,9.6.3,13.7v.7c.3,2.3.5,4.5.7,6.5.1,1.3.2,2.6.4,3.8l.1.9c.2,2.1.5,4.4.7,6.9,0,.1.1.5.1.8.1.5.1,1,.2,1.5l.3,3.3.3,2.8c.1,1.2.2,2.4.4,3.6a19.42,19.42,0,0,1,.2,2.4c.1.6.1,1.1.2,1.7.2,1.6.3,3.3.5,4.9,0,.3.1.7.1,1,.1.9.2,2.1.3,3.4v.3a33.46,33.46,0,0,0,.4,4,25.07,25.07,0,0,1,.4,4.1v.5c.2,1.6.3,3.3.5,4.9l.1,1.4a.9.9,0,0,0,.1.5,18.36,18.36,0,0,1,.2,2.6c.1,2.2.4,4.5.6,7v.2c.4,3.7.7,7.4,1,10.9l.3,4.2a1.48,1.48,0,0,0,.1.7c.4,4.9.9,9.8,1.3,14.7,0,.3.1.7.1,1.2l1.2,16c.2,2.2.3,4.4.5,6.6v.1c0,.4.1,1.1.2,1.9.2,3.8.5,7.6.7,11.4l.5,8.2c.1.8.1,1.7.2,2.5.1,1.3.2,2.7.3,4,.2,2.5.3,5.1.4,7.5l.1,1.4c.2,3.5.4,7.1.5,10.7s.3,6.7.3,9.7c.2,6.3.3,12.8.4,19v1.2c.2,7.9.2,15.8,0,23.3-.1,2.3-.1,4.6-.2,6.9-.1,4.2-.2,8.6-.3,12.9-.1,2.7-.2,5.3-.4,7.8a26.2,26.2,0,0,0-.1,2.8c0,.7-.1,1.4-.1,2.1s-.1,1.6-.1,2.2a10.87,10.87,0,0,1-.1,1.8c-.2,4.3-.3,8.7-.8,13.5,0,.3-.1,1.2-.1,1.8v1.6c-.1,3.1-.3,6.5-.7,10.2l-.3,5.6-.9,14.1-.3,3.9c-.1,1.3-.2,2.6-.3,3.8s-.1,2.6-.2,3.9c-.1,1.1-.1,2.2-.2,3.3-.1,1.3-.2,2.7-.2,4l-.3,4.2-.1,1c-.1,1.9-.2,3.6-.3,5.3v.3c-.2,3.9-.3,7.9-.6,12.1-.1,1.4-.2,3-.2,4.7v.9c-.2,4.9-.3,9.7-.6,14.6-.1,1.7-.2,3.6-.2,5.5,0,1.1-.1,2.2-.1,3.3-.1,1.7-.1,3.5-.2,5.2v1.2c5.1-5.1,10.2-10.2,15.3-15.2,1.1-1.1,2.4-2.6,3.8-4.2l.5-.6c8.8-9.9,17.6-19.4,26.2-28.2,11.8-12,24.7-23.9,38.1-35.3,7.8-6.6,15.8-13.1,23.6-19.4l2.6-2.1c16.4-13.3,29.5-24.4,41.1-34.9,3.9-3.5,7.8-7.1,11.6-10.6l3.8-3.5c5-4.6,10.4-9.5,16.2-14.2a165.35,165.35,0,0,1,13.5-10.2,98.71,98.71,0,0,1,11.7-6.9,75.05,75.05,0,0,1,14.8-5.7,66.56,66.56,0,0,1,13.6-2,49.26,49.26,0,0,1,15.4,1.9,29.24,29.24,0,0,1,20.8,31.2,81.38,81.38,0,0,1-4.6,19.2,107.89,107.89,0,0,1-9.5,18.9,147,147,0,0,1-13.8,18.4c-4.3,4.9-8.9,9.7-13.9,14.4a294.41,294.41,0,0,1-32.9,26.9,256,256,0,0,0-21.8,17.2c-7.9,6.8-16.3,14.5-26.6,24.2-11.6,10.9-23.5,22.3-36.3,35.1-18.1,18-32.7,32.8-45.7,46.7-3.9,4.1-7.8,8.4-11.6,12.5l-.9,1a219.16,219.16,0,0,0-20.2,25.6c-4.2,6.1-8.2,12.4-12,18.4-.7,1.1-1.3,2.1-2,3.2-2.4,3.8-4.9,7.8-7.5,11.7-4.7,7.2-9,13.4-13.3,19.1-2.9,3.8-5.6,7.3-8.3,10.6,0,.8-.1,1.5-.1,2.2-.1,4.9-.2,9.3-.2,13.6-.1,24.5-.1,44.6-.1,63.1v131.4c0,24.7-.1,43.7-.3,61.5-.1,9.8-.3,19.6-.5,29.2-.1,3.9-.2,7.9-.3,11.8,0,2.1-.1,4.1-.2,5.8s-.2,3.3-.2,4.9c-.1,2.7-.3,5.2-.4,7.7-.1,3.6-.5,7-.8,9.9q-.15,1.65-.3,3a43.76,43.76,0,0,1-1.8,8.2l-.1.2a29.83,29.83,0,0,1-13.8,16.7,88,88,0,0,1-10.7,5.3Zm-35.9-43.3Zm35.9-409v2.2a27.15,27.15,0,0,1-.1,2.8c-.1,3.6-.1,7.3-.3,11.2-.2,3.7-.3,7.4-.4,11.2,3.2-4.4,6.5-9.2,10.2-14.8,1.8-2.8,3.7-5.8,5.6-8.6a34.66,34.66,0,0,1-6.4-.6A34.29,34.29,0,0,1,650.4,1034.8Zm47.7-187.2h0v0Zm-55.6-69.2c1.1,1.3,2.2,2.6,3.3,3.8V782c0-1.6.1-3.3.1-5A24.4,24.4,0,0,1,642.5,778.4Zm53.1-119.3Zm-301.7-20Z"/></g></g></svg>